<?xml version="1.0" encoding="utf-8"?>
<!-- Generator: Adobe Illustrator 23.0.1, SVG Export Plug-In . SVG Version: 6.00 Build 0)  -->
<svg version="1.1" id="Layer_1" xmlns="http://www.w3.org/2000/svg" xmlns:xlink="http://www.w3.org/1999/xlink" x="0px" y="0px"
	 viewBox="0 0 1000 1000" style="enable-background:new 0 0 1000 1000;" xml:space="preserve">
<style type="text/css">
	.st0{fill-rule:evenodd;clip-rule:evenodd;fill:#020202;}
	.st1{fill:#F8991D;}
	.st2{fill-rule:evenodd;clip-rule:evenodd;fill:#F8991D;}
	.st3{fill-rule:evenodd;clip-rule:evenodd;fill:#010101;}
	.st4{fill-rule:evenodd;clip-rule:evenodd;fill:#F89921;}
	.st5{fill:#020202;}
	.st6{fill-rule:evenodd;clip-rule:evenodd;fill:#FFFFFF;}
	.st7{fill:#FFFFFF;}
	.st8{fill:none;stroke:#000000;stroke-width:18;stroke-miterlimit:10;}
	.st9{fill-rule:evenodd;clip-rule:evenodd;}
	.st10{fill-rule:evenodd;clip-rule:evenodd;fill:none;stroke:#000000;stroke-width:18;stroke-miterlimit:10;}
</style>
<g>
	<path id="path8" class="st2" d="M666,495.4c-45,33.2-110.3,50.9-166.4,50.9c-78.8,0-149.7-29.1-203.3-77.6c-4.2-3.8-0.4-9,4.6-6
		c57.9,33.7,129.5,54,203.4,54c49.9,0,104.7-10.3,155.2-31.7C667.1,481.7,673.5,489.9,666,495.4"/>
	<path id="path10" class="st2" d="M684.8,474c-5.7-7.4-38-3.5-52.5-1.8c-4.4,0.5-5.1-3.3-1.1-6.1c25.7-18.1,67.9-12.9,72.9-6.8
		c4.9,6.1-1.3,48.4-25.5,68.6c-3.7,3.1-7.2,1.5-5.6-2.7C678.4,511.8,690.5,481.4,684.8,474"/>
</g>
</svg>
